<svg width="1164" height="1164" viewBox="0 0 1164 1164" fill="none" xmlns="http://www.w3.org/2000/svg">
<circle cx="582" cy="582" r="555" fill="#EF233C"/>
<path d="M877.598 582.137C877.598 563.525 876.268 553.554 873.61 536.936C873.61 536.936 873.61 536.936 873.61 536.271C873.61 535.607 872.945 534.942 872.945 534.277C872.945 533.612 872.28 532.948 872.28 532.948C871.615 532.283 871.615 532.283 870.951 531.618C870.286 530.954 870.286 530.954 869.621 530.289C868.957 530.289 868.292 529.624 868.292 529.624C867.627 529.624 866.962 528.959 866.298 528.959C866.298 528.959 866.298 528.959 865.633 528.959C864.968 528.959 864.968 528.959 864.304 528.959C863.639 528.959 863.639 528.959 862.974 528.959C862.974 528.959 862.974 528.959 862.309 528.959C861.645 528.959 860.98 529.624 860.315 529.624C859.651 529.624 858.986 530.289 858.986 530.289C858.321 530.954 858.321 530.954 857.656 531.618C856.992 532.283 856.992 532.283 856.327 532.948C856.327 533.612 855.662 534.277 855.662 534.277C855.662 534.942 854.997 535.607 854.997 536.271C854.997 536.271 854.997 536.271 854.997 536.936C852.339 560.866 833.062 594.766 805.144 624.679C792.514 636.643 779.22 648.608 765.261 657.914C740.001 675.862 711.419 687.827 677.518 687.827C657.577 687.827 636.306 683.838 614.37 675.197C565.846 657.25 560.528 606.731 560.528 586.125C559.199 548.901 575.152 515.665 589.776 509.018C590.44 508.353 591.77 508.353 592.434 507.688C592.434 507.688 592.434 507.688 593.099 507.688C616.364 503.035 638.965 506.359 648.271 516.994C652.259 521.648 653.588 527.63 650.929 534.942C643.618 554.883 648.935 577.484 664.224 590.113C679.512 602.743 700.118 602.743 719.395 590.778C741.996 577.484 754.625 555.548 754.625 530.954C754.625 518.324 751.302 506.359 744.655 495.059C761.937 499.047 779.884 498.382 792.514 485.753C805.144 473.123 808.467 453.846 800.491 435.234C791.185 413.299 763.931 388.039 715.407 388.039C698.789 388.039 685.495 388.704 673.53 389.369C654.253 390.698 638.965 391.363 618.358 388.039C601.74 385.381 594.429 379.398 593.099 374.745C592.434 372.086 593.764 369.427 595.093 368.098C599.082 364.11 608.388 360.786 621.682 364.774C642.953 371.422 656.247 362.78 662.23 357.462C672.2 347.492 676.189 332.203 672.865 318.909C669.542 306.279 660.235 296.973 646.941 294.314C625.67 289.661 603.735 287.002 581.134 287.002C418.943 286.338 286 419.281 286 582.137C286 716.41 375.737 830.076 498.709 865.971C499.374 865.971 500.039 866.635 500.703 866.635H501.368C503.362 867.3 505.356 867.965 507.351 867.965C525.963 873.283 545.904 875.942 565.846 876.606C568.505 876.606 570.499 876.606 573.158 876.606C575.152 876.606 577.146 876.606 578.475 876.606C579.14 876.606 579.805 876.606 579.805 876.606C579.805 876.606 579.805 876.606 580.469 876.606C581.134 876.606 581.134 876.606 581.799 876.606C583.128 876.606 584.458 876.606 585.787 876.606C586.452 876.606 587.781 876.606 588.446 876.606C749.308 873.283 877.598 742.333 877.598 582.137ZM545.904 718.404C544.575 718.404 542.581 718.404 540.586 717.739C524.633 714.415 524.633 700.456 523.969 690.486C523.304 679.85 522.639 675.862 517.321 667.22C514.663 663.232 517.986 659.244 521.974 659.244C522.639 659.244 523.304 659.244 524.633 659.909C541.916 668.55 565.846 683.174 565.181 699.127C565.181 699.792 562.522 718.404 545.904 718.404ZM581.799 306.279C602.405 306.279 623.011 308.273 642.953 312.926C650.265 314.921 652.924 319.574 654.253 323.562C656.247 330.209 654.253 338.186 648.935 342.839C644.282 347.492 636.97 348.156 628.329 345.498C610.382 340.18 592.434 342.839 581.799 353.474C574.487 360.786 571.828 370.757 575.152 380.063C577.811 388.039 586.452 401.334 615.699 406.651C638.3 410.64 654.918 409.31 675.524 407.981C686.824 407.316 700.118 406.651 716.072 406.651C754.625 406.651 775.896 425.928 782.543 441.881C787.196 453.182 785.867 463.817 778.555 471.129C763.931 485.753 726.707 468.47 709.424 458.499C707.43 457.17 706.101 456.505 704.107 455.176C699.454 452.517 693.471 453.846 690.812 458.499C688.154 463.152 689.483 469.135 693.471 471.794C694.136 472.458 696.13 473.788 698.789 475.117C721.389 489.741 734.019 509.683 734.019 530.289C734.019 547.571 724.713 562.86 708.76 572.831C696.13 580.143 684.83 580.807 676.189 573.495C667.547 566.184 664.224 552.889 668.877 540.26C673.53 526.301 671.536 513.006 662.894 503.035C648.935 487.082 619.688 481.1 588.446 487.082C586.452 487.747 584.458 487.747 583.128 488.412C571.828 491.735 549.893 500.377 533.275 515C527.292 495.059 506.686 482.429 490.068 473.123C480.097 467.141 466.803 459.164 466.803 454.511C466.803 448.529 474.115 439.223 482.091 437.228C489.403 435.234 496.05 439.887 502.033 449.858C511.339 466.476 528.622 477.776 543.91 476.447C556.54 475.782 567.175 468.47 573.158 455.176C577.811 445.205 577.811 432.575 573.822 421.94C570.499 413.299 562.522 401.998 543.91 394.687C538.592 392.692 533.275 395.351 531.28 400.004C529.286 405.322 531.945 410.64 536.598 412.634C546.569 416.622 552.551 421.94 555.21 428.587C557.869 435.234 556.54 441.881 555.21 445.87C552.551 452.517 548.563 455.841 543.245 455.841C535.269 456.505 524.633 449.193 519.316 439.223C504.692 413.299 484.75 415.293 477.438 417.287C460.82 421.275 446.861 437.893 446.861 453.846C446.861 469.8 462.815 479.106 479.433 489.076C504.027 503.7 519.316 514.336 513.333 533.612C512.668 535.607 511.339 536.936 508.68 538.265C504.027 540.26 497.38 540.26 492.727 538.265C485.415 534.942 478.768 529.624 473.45 524.971C464.809 517.659 456.832 511.012 446.861 513.006C440.214 513.671 434.897 517.659 430.244 524.971C428.249 528.295 426.92 532.283 428.249 536.271C430.908 545.577 440.879 550.895 456.832 559.536C484.086 574.16 506.686 587.454 506.686 607.396C506.686 608.061 506.686 608.725 506.686 610.055C506.686 610.72 506.686 611.384 506.686 612.714C506.686 614.043 506.021 614.708 506.021 616.037C506.021 616.702 505.357 617.367 505.357 618.031C505.357 618.696 504.692 619.361 504.692 620.026C504.027 621.355 503.362 622.02 502.033 623.349C501.368 624.014 500.703 624.679 500.039 625.343C494.721 629.332 487.409 631.326 480.762 631.326C471.456 631.326 459.491 627.337 457.497 615.373C454.173 598.09 426.255 577.484 401.661 575.49C389.696 574.16 379.06 577.484 371.748 584.796L369.09 588.119C368.425 588.784 367.76 590.113 367.095 590.778C366.431 592.107 365.766 592.772 365.101 594.102C365.101 594.766 364.437 594.766 364.437 595.431C363.772 596.096 363.772 596.76 363.107 598.09C362.442 598.09 362.442 598.755 362.442 599.419C361.778 600.084 361.778 601.414 361.778 602.078C358.454 616.702 377.066 628.002 401.661 643.291C442.208 667.885 474.115 690.486 462.15 718.404C459.491 724.386 454.173 730.369 447.526 734.357C440.879 738.345 432.902 740.339 425.59 740.339C410.302 740.339 397.672 731.033 390.361 714.415C383.049 697.797 374.407 689.156 364.437 689.156C357.125 689.156 350.478 693.144 345.825 701.121C343.83 705.774 341.836 711.092 341.836 717.074C319.236 677.191 305.941 630.661 305.941 582.137C305.941 429.917 429.579 306.279 581.799 306.279Z" fill="white"/>
<path d="M785.867 511.677C777.89 511.677 771.243 515.665 766.59 522.312C762.602 528.959 761.937 536.936 765.261 543.583C765.261 544.248 765.261 544.248 765.926 544.248C765.926 544.913 765.926 544.913 765.926 546.242V546.907C765.261 550.895 765.261 556.213 766.59 562.195C769.249 571.501 775.896 578.813 785.202 582.137C788.526 583.466 792.514 584.131 795.838 584.131C811.126 584.131 821.097 572.831 825.085 561.531C825.085 560.866 825.75 560.201 825.75 558.872C828.409 543.583 819.103 528.959 799.161 515.665C794.508 513.006 790.52 511.677 785.867 511.677ZM795.838 564.854C794.508 564.854 793.179 564.854 791.849 564.189C783.873 561.531 784.538 554.219 785.202 548.901C785.867 542.918 785.867 540.924 783.208 536.271C782.543 534.277 783.873 532.283 785.867 532.283C786.532 532.283 787.196 532.283 787.196 532.948C795.173 538.93 807.138 548.236 805.809 556.878C805.809 556.213 803.15 564.854 795.838 564.854Z" fill="white"/>
<path d="M708.095 355.468L708.76 356.133C708.76 356.133 709.424 356.798 709.424 357.463V358.127C710.754 361.451 712.748 366.104 716.736 370.092C722.719 376.739 730.695 380.063 739.337 380.063C740.666 380.063 741.996 380.063 743.325 380.063C751.966 378.733 759.943 374.745 764.596 368.098C771.908 358.127 770.578 346.827 769.914 344.168C769.914 343.503 769.249 342.174 769.249 341.509C761.937 320.238 733.354 316.915 724.048 315.585C723.384 315.585 722.054 315.585 721.389 315.585C711.419 315.585 702.777 321.568 700.118 330.874C697.46 340.18 700.783 350.151 708.095 355.468ZM722.054 334.862C732.69 336.192 748.643 339.515 751.302 347.492C751.302 347.492 753.296 358.792 741.331 360.121C740.666 360.121 740.001 360.121 739.337 360.121C732.025 360.121 729.366 354.139 727.372 349.486C725.378 344.833 724.048 342.839 719.395 339.515C718.066 338.186 719.395 334.862 722.054 334.862Z" fill="white"/>
</svg>
