<svg width="706" height="706" viewBox="0 0 706 706" fill="none" xmlns="http://www.w3.org/2000/svg">
<rect x="55" y="195" width="595.66" height="316" rx="158" fill="#282828"/>
<path d="M161.697 309.185H183.027L196.963 366.349L198.669 377.014H199.807L202.082 366.349L219.999 309.185H238.912L256.403 366.349L258.678 376.73H259.815L261.522 366.349L275.315 309.185H296.645L270.338 411H249.719L232.371 349.57L230.096 338.62H228.958L226.683 349.57L208.481 411H188.715L161.697 309.185Z" fill="white"/>
<circle cx="492.66" cy="353" r="124.82" fill="white"/>
<path d="M492.376 410.115C483.464 410.115 475.596 407.603 468.77 402.579C461.945 397.554 457.157 390.444 454.408 381.249L472.468 374.139C473.89 379.542 476.307 383.856 479.72 387.079C483.133 390.302 487.399 391.914 492.518 391.914C496.784 391.914 500.434 390.871 503.467 388.785C506.501 386.605 508.018 383.619 508.018 379.827C508.018 376.035 506.548 372.954 503.609 370.584C500.765 368.119 495.646 365.512 488.252 362.763L481.995 360.487C475.454 358.212 469.861 354.752 465.215 350.107C460.57 345.367 458.248 339.442 458.248 332.332C458.248 327.023 459.622 322.188 462.371 317.827C465.121 313.467 469.007 310.054 474.032 307.589C479.056 305.029 484.744 303.75 491.096 303.75C500.291 303.75 507.544 305.93 512.852 310.291C518.161 314.557 521.811 319.581 523.802 325.364L506.88 332.474C505.837 329.346 503.989 326.739 501.334 324.653C498.775 322.473 495.457 321.382 491.38 321.382C487.209 321.382 483.749 322.378 481 324.369C478.345 326.265 477.018 328.777 477.018 331.905C477.018 334.939 478.298 337.546 480.857 339.726C483.417 341.812 487.636 343.85 493.513 345.841L499.912 347.974C508.729 351.007 515.459 355.036 520.105 360.061C524.845 364.99 527.215 371.484 527.215 379.542C527.215 386.178 525.508 391.819 522.095 396.464C518.683 401.014 514.274 404.427 508.871 406.702C503.562 408.978 498.064 410.115 492.376 410.115Z" fill="#282828"/>
</svg>
